<svg width="30" height="30" viewBox="0 0 30 30" fill="none" xmlns="http://www.w3.org/2000/svg">
<g clip-path="url(#clip0_30_2558)">
<path d="M10.4508 0.986718C7.45335 2.02657 4.86834 4.00023 3.07548 6.61782C1.28262 9.2354 0.376419 12.3589 0.489976 15.5296C0.603533 18.7003 1.73087 21.751 3.70639 24.2336C5.68191 26.7162 8.40148 28.4999 11.4657 29.3227C13.9499 29.9637 16.5526 29.9918 19.05 29.4047C21.3125 28.8965 23.4042 27.8094 25.1203 26.25C26.9065 24.5774 28.2029 22.4496 28.8703 20.0953C29.5955 17.5351 29.7246 14.8428 29.2477 12.225H15.2977V18.0117H23.3766C23.2151 18.9347 22.8691 19.8155 22.3593 20.6016C21.8495 21.3877 21.1863 22.0629 20.4094 22.5867C19.423 23.2395 18.3109 23.6786 17.1446 23.8758C15.9749 24.0933 14.7752 24.0933 13.6055 23.8758C12.4199 23.6309 11.2984 23.1416 10.3125 22.4391C8.72851 21.3178 7.53912 19.7248 6.9141 17.8875C6.27868 16.0157 6.27868 13.9866 6.9141 12.1148C7.359 10.8028 8.09449 9.60828 9.06566 8.62031C10.177 7.46894 11.5841 6.64593 13.1324 6.24158C14.6808 5.83724 16.3106 5.86718 17.843 6.32812C19.0402 6.69544 20.1349 7.33753 21.0399 8.20312C21.9508 7.29687 22.8602 6.38828 23.768 5.47734C24.2368 4.9875 24.7477 4.52109 25.2094 4.01953C23.8278 2.73403 22.2063 1.73368 20.4375 1.07578C17.2165 -0.0937744 13.6922 -0.125205 10.4508 0.986718Z" fill="white"/>
<path d="M10.4509 0.98672C13.692 -0.125959 17.2163 -0.0953553 20.4376 1.07344C22.2066 1.73581 23.8275 2.74097 25.2071 4.03125C24.7384 4.53281 24.2438 5.00156 23.7657 5.48906C22.8563 6.39688 21.9478 7.30156 21.0399 8.20313C20.135 7.33753 19.0403 6.69545 17.8431 6.32813C16.3111 5.86557 14.6814 5.83389 13.1326 6.23659C11.5839 6.63928 10.176 7.46077 9.06338 8.61094C8.09221 9.59891 7.35672 10.7935 6.91182 12.1055L2.05322 8.34375C3.7923 4.89507 6.80342 2.25709 10.4509 0.98672Z" fill="#E33629"/>
<path d="M0.764007 12.0703C1.02496 10.776 1.45852 9.52264 2.05307 8.34375L6.91166 12.1148C6.27625 13.9866 6.27625 16.0157 6.91166 17.8875C5.29291 19.1375 3.67338 20.3938 2.05307 21.6563C0.565141 18.6945 0.111349 15.3199 0.764007 12.0703Z" fill="#F8BD00"/>
<path d="M15.2977 12.2227H29.2477C29.7246 14.8405 29.5955 17.5328 28.8703 20.093C28.2029 22.4472 26.9065 24.575 25.1203 26.2477C23.5524 25.0242 21.9774 23.8102 20.4094 22.5867C21.1868 22.0624 21.8503 21.3865 22.3601 20.5995C22.87 19.8126 23.2157 18.9308 23.3766 18.007H15.2977C15.2953 16.0805 15.2977 14.1516 15.2977 12.2227Z" fill="#587DBD"/>
<path d="M2.05078 21.6563C3.67109 20.4063 5.29062 19.15 6.90937 17.8875C7.53564 19.7255 8.72673 21.3185 10.3125 22.4391C11.3014 23.1384 12.4254 23.6237 13.6125 23.8641C14.7822 24.0816 15.9819 24.0816 17.1516 23.8641C18.3179 23.6669 19.43 23.2278 20.4164 22.575C21.9844 23.7984 23.5594 25.0125 25.1273 26.2359C23.4115 27.7962 21.3197 28.8841 19.057 29.393C16.5596 29.9801 13.9569 29.9519 11.4727 29.3109C9.50789 28.7863 7.67268 27.8616 6.08203 26.5945C4.39858 25.2577 3.02352 23.5733 2.05078 21.6563Z" fill="#319F43"/>
</g>
<defs>
<clipPath id="clip0_30_2558">
<rect width="30" height="30" fill="white"/>
</clipPath>
</defs>
</svg>
