<svg width="739" height="551" viewBox="0 0 739 551" fill="none" xmlns="http://www.w3.org/2000/svg">
<path d="M738.477 483.555H0V483.924H738.477V483.555Z" fill="#EBEBEB"/>
<path d="M664.481 507.319H615.565V507.688H664.481V507.319Z" fill="#EBEBEB"/>
<path d="M489.197 511.336H476.362V511.705H489.197V511.336Z" fill="#EBEBEB"/>
<path d="M614.088 493.613H585.745V493.982H614.088V493.613Z" fill="#EBEBEB"/>
<path d="M141.271 496.094H77.481V496.463H141.271V496.094Z" fill="#EBEBEB"/>
<path d="M163.78 496.094H154.43V496.463H163.78V496.094Z" fill="#EBEBEB"/>
<path d="M332.536 502.327H194.175V502.696H332.536V502.327Z" fill="#EBEBEB"/>
<path d="M350.038 417.682H64.853C62.6188 417.679 60.4776 416.788 58.8992 415.207C57.3208 413.626 56.4343 411.483 56.4343 409.249V8.35956C56.4538 6.13826 57.3488 4.01433 58.9251 2.44911C60.5014 0.883895 62.6316 0.00380521 64.853 0H350.038C352.275 0 354.42 0.888517 356.001 2.47009C357.583 4.05166 358.471 6.19673 358.471 8.4334V409.249C358.471 411.486 357.583 413.631 356.001 415.212C354.42 416.794 352.275 417.682 350.038 417.682ZM64.853 0.295392C62.7168 0.299304 60.6694 1.15064 59.1603 2.66254C57.6512 4.17444 56.8036 6.22336 56.8036 8.35956V409.249C56.8036 411.385 57.6512 413.434 59.1603 414.946C60.6694 416.458 62.7168 417.309 64.853 417.313H350.038C352.176 417.309 354.224 416.458 355.736 414.947C357.247 413.436 358.098 411.387 358.102 409.249V8.35956C358.098 6.22201 357.247 4.17312 355.736 2.66164C354.224 1.15016 352.176 0.299296 350.038 0.295392H64.853Z" fill="#EBEBEB"/>
<path d="M669.518 417.682H384.318C382.082 417.679 379.94 416.789 378.359 415.208C376.778 413.627 375.888 411.485 375.885 409.249V8.35956C375.908 6.13691 376.806 4.013 378.385 2.44819C379.963 0.883379 382.095 0.00376371 384.318 0H669.518C671.736 0.0076868 673.863 0.889494 675.436 2.4543C677.009 4.0191 677.902 6.14081 677.922 8.35956V409.249C677.922 411.481 677.037 413.621 675.462 415.202C673.887 416.783 671.749 417.675 669.518 417.682ZM384.318 0.295392C382.18 0.299296 380.131 1.15016 378.62 2.66164C377.109 4.17312 376.258 6.22201 376.254 8.35956V409.249C376.258 411.387 377.109 413.436 378.62 414.947C380.131 416.458 382.18 417.309 384.318 417.313H669.518C671.655 417.309 673.704 416.458 675.216 414.947C676.727 413.436 677.578 411.387 677.582 409.249V8.35956C677.578 6.22201 676.727 4.17312 675.216 2.66164C673.704 1.15016 671.655 0.299296 669.518 0.295392H384.318Z" fill="#EBEBEB"/>
<path d="M467.515 335.933H644.971C644.97 339.068 643.76 342.082 641.591 344.347C639.423 346.611 636.465 347.951 633.333 348.088C614.265 348.96 584.918 351.973 575.628 362.518C558.274 382.191 559.958 451.283 580.738 467.279C587.237 472.3 606.231 482.255 606.231 482.255H506.256C506.256 482.255 523.979 472.094 530.168 467.279C550.845 451.15 551.421 382.103 533.993 362.518C525.057 352.475 497.556 349.226 479.109 348.207C475.973 348.033 473.023 346.663 470.867 344.38C468.71 342.097 467.51 339.074 467.515 335.933Z" fill="#F5F5F5"/>
<path d="M622.979 348.738C604.96 350.215 583.367 353.745 575.628 362.518C573.101 365.549 571.103 368.984 569.72 372.68H539.959C538.557 368.993 536.561 365.561 534.052 362.518C526.283 353.789 504.513 350.2 486.789 348.738H622.979Z" fill="#E6E6E6"/>
<path d="M543.105 336.022L545.528 308.447H510.539L508.131 336.022H543.105Z" fill="#EBEBEB"/>
<path d="M543.105 336.022L545.527 308.447H547.403L544.996 336.022H543.105Z" fill="#E0E0E0"/>
<path d="M539.782 333.216L541.702 311.253H513.861L511.941 333.216H539.782Z" fill="#F0F0F0"/>
<path d="M537.655 331.399L539.25 313.07H516.003L514.393 331.399H537.655Z" fill="#FAFAFA"/>
<path d="M554.448 335.933H589.585L585.686 291.373H550.549L554.448 335.933Z" fill="#E6E6E6"/>
<path d="M554.448 335.933H552.779L548.88 291.373H550.549L554.448 335.933Z" fill="#E0E0E0"/>
<path d="M557.639 331.399H585.612L582.511 295.922H554.537L557.639 331.399Z" fill="#F0F0F0"/>
<path d="M559.677 328.474H583.057L580.457 298.847H557.092L559.677 328.474Z" fill="#FAFAFA"/>
<path d="M571.492 312.169C571.115 312.548 570.666 312.85 570.172 313.055C569.677 313.261 569.147 313.367 568.612 313.367C568.077 313.367 567.547 313.261 567.053 313.055C566.558 312.85 566.11 312.548 565.732 312.169C564.974 311.405 564.548 310.373 564.548 309.296C564.548 308.22 564.974 307.187 565.732 306.424C566.498 305.664 567.533 305.238 568.612 305.238C569.691 305.238 570.726 305.664 571.492 306.424C572.251 307.187 572.676 308.22 572.676 309.296C572.676 310.373 572.251 311.405 571.492 312.169Z" fill="#EBEBEB"/>
<path d="M569.764 317.161C570.039 316.882 570.367 316.66 570.728 316.509C571.089 316.358 571.477 316.28 571.869 316.28C572.261 316.28 572.648 316.358 573.01 316.509C573.371 316.66 573.699 316.882 573.974 317.161C574.401 317.572 574.694 318.103 574.815 318.683C574.937 319.264 574.881 319.867 574.654 320.415C574.428 320.963 574.042 321.431 573.547 321.757C573.051 322.082 572.469 322.251 571.876 322.242C571.282 322.254 570.698 322.088 570.2 321.763C569.702 321.438 569.314 320.971 569.086 320.422C568.858 319.874 568.8 319.269 568.922 318.687C569.043 318.105 569.336 317.573 569.764 317.161Z" fill="#F0F0F0"/>
<path d="M120.697 285.141H286.396V101.88L120.697 101.88L120.697 285.141Z" fill="#E0E0E0"/>
<path d="M115.409 285.141H287.267V101.88L115.409 101.88L115.409 285.141Z" fill="#F0F0F0"/>
<path d="M122.691 276.707H280.281V107.714L122.691 107.714L122.691 276.707Z" fill="white"/>
<path d="M122.676 276.707H127.24L127.24 107.714H122.676L122.676 276.707Z" fill="#E0E0E0"/>
<path d="M126.752 229.238V233.802H280.68V229.238H126.752Z" fill="#E0E0E0"/>
<path d="M122.676 229.238L282.718 229.238V221.587L122.676 221.587V229.238Z" fill="#F0F0F0"/>
<path d="M558.865 133.251C558.865 133.251 560.342 123.503 553.237 117.255C546.133 111.008 546.754 107.286 548.807 106.798C550.859 106.311 552.706 112.573 555.837 114.287C555.837 114.287 555.94 105.425 552.765 102.102C549.589 98.7786 547.92 90.3748 550.948 90.2861C553.976 90.1975 554.271 95.3078 554.906 98.9706C555.541 102.633 558.894 107.832 558.894 107.832C558.894 107.832 559.544 99.8568 561.597 96.578C563.65 93.2991 558.185 85.7962 560.297 82.5174C562.409 79.2385 566.205 85.4713 565.836 92.5164C565.467 99.5614 560.844 107.05 561.937 114.39C561.937 114.39 564.004 109.235 565.851 108.763C567.697 108.29 569.587 104.893 570.828 103.623C572.069 102.353 573.649 106.739 570.828 110.801C568.007 114.863 560.844 125.733 561.966 134.506L558.865 133.251Z" fill="#E6E6E6"/>
<path d="M554.611 128.82L552.277 143.427C552.1 144.493 552.159 145.585 552.45 146.626C552.74 147.667 553.256 148.631 553.961 149.451C554.665 150.271 555.54 150.926 556.526 151.37C557.511 151.815 558.581 152.037 559.662 152.023H562.143C563.224 152.037 564.295 151.815 565.28 151.37C566.265 150.926 567.141 150.271 567.845 149.451C568.549 148.631 569.065 147.667 569.356 146.626C569.647 145.585 569.705 144.493 569.528 143.427L567.15 128.82H554.611Z" fill="#F5F5F5"/>
<path d="M589.807 146.632H425.274V155.08H589.807V146.632Z" fill="#E6E6E6"/>
<path d="M440.103 115.468H432.851V146.632H440.103V115.468Z" fill="#F0F0F0"/>
<path d="M475.151 115.468H467.899V146.632H475.151V115.468Z" fill="#F0F0F0"/>
<path d="M514.947 114.676L507.801 115.908L513.094 146.619L520.241 145.387L514.947 114.676Z" fill="#F0F0F0"/>
<path d="M449.082 119.574H441.831V146.632H449.082V119.574Z" fill="#F0F0F0"/>
<path d="M465.743 119.574H458.491V146.632H465.743V119.574Z" fill="#F0F0F0"/>
<path d="M507.806 119.574H500.554V146.632H507.806V119.574Z" fill="#F0F0F0"/>
<path d="M484.669 118.617L477.59 120.19L483.461 146.604L490.54 145.03L484.669 118.617Z" fill="#F0F0F0"/>
<path d="M455.345 113.917H451.726V146.632H455.345V113.917Z" fill="#F0F0F0"/>
<path d="M498.457 113.917H494.839V146.632H498.457V113.917Z" fill="#F0F0F0"/>
<path d="M425.289 218.19L589.822 218.19V209.742L425.289 209.742V218.19Z" fill="#E6E6E6"/>
<path d="M574.993 209.742H582.245V178.578H574.993V209.742Z" fill="#F0F0F0"/>
<path d="M539.945 209.742H547.197V178.578H539.945V209.742Z" fill="#F0F0F0"/>
<path d="M494.873 208.481L502.019 209.713L507.313 179.002L500.166 177.77L494.873 208.481Z" fill="#F0F0F0"/>
<path d="M566.013 209.742H573.265V182.684H566.013V209.742Z" fill="#F0F0F0"/>
<path d="M549.353 209.742H556.604V182.684H549.353V209.742Z" fill="#F0F0F0"/>
<path d="M507.289 209.742H514.541V182.684H507.289V209.742Z" fill="#F0F0F0"/>
<path d="M524.572 208.136L531.651 209.709L537.521 183.296L530.442 181.722L524.572 208.136Z" fill="#F0F0F0"/>
<path d="M559.751 209.742H563.369V177.028H559.751V209.742Z" fill="#F0F0F0"/>
<path d="M516.638 209.742H520.257V177.028H516.638V209.742Z" fill="#F0F0F0"/>
<path d="M441.077 209.462H476.391V185.077H441.077V209.462Z" fill="#F5F5F5"/>
<path d="M369.238 550.254C527.394 550.254 655.605 542.769 655.605 533.535C655.605 524.301 527.394 516.816 369.238 516.816C211.083 516.816 82.8718 524.301 82.8718 533.535C82.8718 542.769 211.083 550.254 369.238 550.254Z" fill="#F5F5F5"/>
<path d="M491.043 496.596C491.043 496.596 483.658 480.645 492.077 464.901C500.495 449.156 502.859 445.464 497.541 442.244C492.224 439.024 489.758 454.902 489.758 454.902C487.113 447.759 486.838 439.955 488.975 432.644C492.682 421.257 495.016 402.721 489.95 400.727C484.884 398.733 488.99 423.856 484.589 432.422C482.349 426.413 480.904 420.137 480.291 413.754C479.685 404.611 480.63 390.004 476.628 386.268C472.625 382.531 470.07 385.101 473.999 405.291C476.36 417.344 477.665 429.58 477.898 441.86C477.898 441.86 469.228 415.393 463.394 414.625C457.56 413.857 457.575 422.424 462.567 429.853C467.559 437.282 477.174 450.604 478.74 457.457C478.74 457.457 469.214 437.548 460.647 443.647C452.081 449.747 468.106 461.784 475.254 466.127C482.403 470.469 487.365 497.719 487.365 497.719L491.043 496.596Z" fill="#9F865D"/>
<path opacity="0.2" d="M491.043 496.596C491.043 496.596 483.658 480.645 492.077 464.901C500.495 449.156 502.859 445.464 497.541 442.244C492.224 439.024 489.758 454.902 489.758 454.902C487.113 447.759 486.838 439.955 488.975 432.644C492.682 421.257 495.016 402.721 489.95 400.727C484.884 398.733 488.99 423.856 484.589 432.422C482.349 426.413 480.904 420.137 480.291 413.754C479.685 404.611 480.63 390.004 476.628 386.268C472.625 382.531 470.07 385.101 473.999 405.291C476.36 417.344 477.665 429.58 477.898 441.86C477.898 441.86 469.228 415.393 463.394 414.625C457.56 413.857 457.575 422.424 462.567 429.853C467.559 437.282 477.174 450.604 478.74 457.457C478.74 457.457 469.214 437.548 460.647 443.647C452.081 449.747 468.106 461.784 475.254 466.127C482.403 470.469 487.365 497.719 487.365 497.719L491.043 496.596Z" fill="black"/>
<path d="M485.268 503.139C485.268 503.139 492.387 487.07 483.791 471.473C475.195 455.876 472.773 452.184 478.06 448.89C483.348 445.597 485.977 461.356 485.977 461.356C488.538 454.18 488.72 446.37 486.494 439.084C482.654 427.77 480.099 409.264 485.15 407.196C490.201 405.128 486.39 430.31 490.88 438.803C493.054 432.761 494.424 426.459 494.957 420.06C495.459 410.918 494.337 396.326 498.295 392.53C502.253 388.734 504.838 391.275 501.145 411.509C498.925 423.594 497.769 435.85 497.689 448.137C497.689 448.137 506.049 421.552 511.868 420.695C517.687 419.839 517.776 428.405 512.872 435.908C507.969 443.411 498.531 456.881 497.025 463.749C497.025 463.749 506.315 443.692 514.955 449.673C523.595 455.655 507.718 467.914 500.628 472.374C493.539 476.834 488.901 504.143 488.901 504.143L485.268 503.139Z" fill="#9F865D"/>
<path d="M518.115 491.693H459.273L464.044 533.801H513.359L518.115 491.693Z" fill="#2D415A"/>
<path opacity="0.2" d="M633.687 72.9615H322.699C320.677 72.9615 319.037 74.6015 319.037 76.6244V352.844C319.037 354.867 320.677 356.507 322.699 356.507H633.687C635.71 356.507 637.35 354.867 637.35 352.844V76.6244C637.35 74.6015 635.71 72.9615 633.687 72.9615Z" fill="black"/>
<path d="M621.649 67.7183H310.662C308.639 67.7183 306.999 69.3582 306.999 71.3812V347.601C306.999 349.624 308.639 351.264 310.662 351.264H621.649C623.672 351.264 625.312 349.624 625.312 347.601V71.3812C625.312 69.3582 623.672 67.7183 621.649 67.7183Z" fill="#9F865D"/>
<path opacity="0.6" d="M307 93.0481V347.616C306.924 348.49 307.189 349.359 307.74 350.042C308.29 350.724 309.083 351.168 309.953 351.279H622.27C623.156 351.189 623.971 350.755 624.54 350.07C625.11 349.384 625.387 348.503 625.313 347.616V93.0481H307Z" fill="white"/>
<path d="M621.531 107.98H310.766V332.876H621.531V107.98Z" fill="white"/>
<path opacity="0.6" d="M614.915 85.235C617.493 85.235 619.582 82.7156 619.582 79.6078C619.582 76.5 617.493 73.9806 614.915 73.9806C612.337 73.9806 610.248 76.5 610.248 79.6078C610.248 82.7156 612.337 85.235 614.915 85.235Z" fill="white"/>
<path opacity="0.6" d="M599.628 85.235C602.206 85.235 604.296 82.7156 604.296 79.6078C604.296 76.5 602.206 73.9806 599.628 73.9806C597.051 73.9806 594.961 76.5 594.961 79.6078C594.961 82.7156 597.051 85.235 599.628 85.235Z" fill="white"/>
<path opacity="0.6" d="M588.994 79.6078C588.994 82.7094 586.912 85.2202 584.327 85.2202C581.742 85.2202 579.675 82.7094 579.675 79.6078C579.675 76.5062 581.757 73.9806 584.327 73.9806C586.897 73.9806 588.994 76.4915 588.994 79.6078Z" fill="white"/>
<path d="M376.978 134.24V192.24L362.06 210.23H329.021V134.24H376.978Z" fill="#9F865D"/>
<path opacity="0.7" d="M376.978 134.24V192.24L362.06 210.23H329.021V134.24H376.978Z" fill="white"/>
<path opacity="0.3" d="M376.978 192.24L362.06 210.23V192.24H376.978Z" fill="#9F865D"/>
<path opacity="0.3" d="M369.548 145.199H336.465V147.37H369.548V145.199Z" fill="#9F865D"/>
<path opacity="0.3" d="M369.548 153.441H336.465V155.612H369.548V153.441Z" fill="#9F865D"/>
<path opacity="0.3" d="M369.548 161.697H336.465V163.883H369.548V161.697Z" fill="#9F865D"/>
<path opacity="0.3" d="M369.548 169.953H336.465V172.124H369.548V169.953Z" fill="#9F865D"/>
<path opacity="0.3" d="M360.997 178.209H336.465V180.395H360.997V178.209Z" fill="#9F865D"/>
<path d="M453.041 134.24V192.24L438.123 210.23H405.084V134.24H453.041Z" fill="#9F865D"/>
<path opacity="0.7" d="M453.041 134.24V192.24L438.123 210.23H405.084V134.24H453.041Z" fill="white"/>
<path opacity="0.3" d="M453.041 192.24L438.124 210.23V192.24H453.041Z" fill="#9F865D"/>
<path opacity="0.3" d="M445.597 145.199H412.513V147.37H445.597V145.199Z" fill="#9F865D"/>
<path opacity="0.3" d="M445.597 153.441H412.513V155.612H445.597V153.441Z" fill="#9F865D"/>
<path opacity="0.3" d="M445.597 161.697H412.513V163.883H445.597V161.697Z" fill="#9F865D"/>
<path opacity="0.3" d="M445.597 169.953H412.513V172.124H445.597V169.953Z" fill="#9F865D"/>
<path opacity="0.3" d="M437.045 178.209H412.513V180.395H437.045V178.209Z" fill="#9F865D"/>
<path d="M529.104 134.24V192.24L514.186 210.23H481.147V134.24H529.104Z" fill="#9F865D"/>
<path opacity="0.7" d="M529.104 134.24V192.24L514.186 210.23H481.147V134.24H529.104Z" fill="white"/>
<path opacity="0.3" d="M529.104 192.24L514.187 210.23V192.24H529.104Z" fill="#9F865D"/>
<path opacity="0.3" d="M521.66 145.199H488.576V147.37H521.66V145.199Z" fill="#9F865D"/>
<path opacity="0.3" d="M521.66 153.441H488.576V155.612H521.66V153.441Z" fill="#9F865D"/>
<path opacity="0.3" d="M521.66 161.697H488.576V163.883H521.66V161.697Z" fill="#9F865D"/>
<path opacity="0.3" d="M521.66 169.953H488.576V172.124H521.66V169.953Z" fill="#9F865D"/>
<path opacity="0.3" d="M513.108 178.209H488.576V180.395H513.108V178.209Z" fill="#9F865D"/>
<path d="M605.167 134.24V192.24L590.235 210.23H557.21V134.24H605.167Z" fill="#9F865D"/>
<path opacity="0.7" d="M605.167 134.24V192.24L590.235 210.23H557.21V134.24H605.167Z" fill="white"/>
<path opacity="0.3" d="M605.167 192.24L590.235 210.23V192.24H605.167Z" fill="#9F865D"/>
<path opacity="0.3" d="M597.723 145.199H564.639V147.37H597.723V145.199Z" fill="#9F865D"/>
<path opacity="0.3" d="M597.723 153.441H564.639V155.612H597.723V153.441Z" fill="#9F865D"/>
<path opacity="0.3" d="M597.723 161.697H564.639V163.883H597.723V161.697Z" fill="#9F865D"/>
<path opacity="0.3" d="M597.723 169.953H564.639V172.124H597.723V169.953Z" fill="#9F865D"/>
<path opacity="0.3" d="M589.171 178.209H564.639V180.395H589.171V178.209Z" fill="#9F865D"/>
<path d="M376.978 234.673V292.673L362.06 310.662H329.021V234.673H376.978Z" fill="#9F865D"/>
<path opacity="0.7" d="M376.978 234.673V292.673L362.06 310.662H329.021V234.673H376.978Z" fill="white"/>
<path opacity="0.3" d="M376.978 292.673L362.06 310.662V292.673H376.978Z" fill="#9F865D"/>
<path opacity="0.3" d="M369.548 245.632H336.465V247.803H369.548V245.632Z" fill="#9F865D"/>
<path opacity="0.3" d="M369.548 253.874H336.465V256.045H369.548V253.874Z" fill="#9F865D"/>
<path opacity="0.3" d="M369.548 262.13H336.465V264.316H369.548V262.13Z" fill="#9F865D"/>
<path opacity="0.3" d="M369.548 270.386H336.465V272.572H369.548V270.386Z" fill="#9F865D"/>
<path opacity="0.3" d="M360.997 278.642H336.465V280.813H360.997V278.642Z" fill="#9F865D"/>
<path d="M453.041 234.673V292.673L438.123 310.662H405.084V234.673H453.041Z" fill="#9F865D"/>
<path opacity="0.7" d="M453.041 234.673V292.673L438.123 310.662H405.084V234.673H453.041Z" fill="white"/>
<path opacity="0.3" d="M453.041 292.673L438.124 310.662V292.673H453.041Z" fill="#9F865D"/>
<path opacity="0.3" d="M445.597 245.632H412.513V247.803H445.597V245.632Z" fill="#9F865D"/>
<path opacity="0.3" d="M445.597 253.874H412.513V256.045H445.597V253.874Z" fill="#9F865D"/>
<path opacity="0.3" d="M445.597 262.13H412.513V264.316H445.597V262.13Z" fill="#9F865D"/>
<path opacity="0.3" d="M445.597 270.386H412.513V272.572H445.597V270.386Z" fill="#9F865D"/>
<path opacity="0.3" d="M437.045 278.642H412.513V280.813H437.045V278.642Z" fill="#9F865D"/>
<path d="M529.104 234.673V292.673L514.186 310.662H481.147V234.673H529.104Z" fill="#9F865D"/>
<path opacity="0.7" d="M529.104 234.673V292.673L514.186 310.662H481.147V234.673H529.104Z" fill="white"/>
<path opacity="0.3" d="M529.104 292.673L514.187 310.662V292.673H529.104Z" fill="#9F865D"/>
<path opacity="0.3" d="M521.66 245.632H488.576V247.803H521.66V245.632Z" fill="#9F865D"/>
<path opacity="0.3" d="M521.66 253.874H488.576V256.045H521.66V253.874Z" fill="#9F865D"/>
<path opacity="0.3" d="M521.66 262.13H488.576V264.316H521.66V262.13Z" fill="#9F865D"/>
<path opacity="0.3" d="M521.66 270.386H488.576V272.572H521.66V270.386Z" fill="#9F865D"/>
<path opacity="0.3" d="M513.108 278.642H488.576V280.813H513.108V278.642Z" fill="#9F865D"/>
<path d="M605.167 234.673V292.673L590.235 310.662H557.21V234.673H605.167Z" fill="#9F865D"/>
<path opacity="0.7" d="M605.167 234.673V292.673L590.235 310.662H557.21V234.673H605.167Z" fill="white"/>
<path opacity="0.3" d="M605.167 292.673L590.235 310.662V292.673H605.167Z" fill="#9F865D"/>
<path opacity="0.3" d="M597.723 245.632H564.639V247.803H597.723V245.632Z" fill="#9F865D"/>
<path opacity="0.3" d="M597.723 253.874H564.639V256.045H597.723V253.874Z" fill="#9F865D"/>
<path opacity="0.3" d="M597.723 262.13H564.639V264.316H597.723V262.13Z" fill="#9F865D"/>
<path opacity="0.3" d="M597.723 270.386H564.639V272.572H597.723V270.386Z" fill="#9F865D"/>
<path opacity="0.3" d="M589.171 278.642H564.639V280.813H589.171V278.642Z" fill="#9F865D"/>
<path opacity="0.1" d="M487.336 186.613H410.785C407.237 186.613 404.36 189.49 404.36 193.038V250.403C404.36 253.951 407.237 256.827 410.785 256.827H487.336C490.884 256.827 493.76 253.951 493.76 250.403V193.038C493.76 189.49 490.884 186.613 487.336 186.613Z" fill="black"/>
<g opacity="0.1">
<path d="M481.856 183.349H472.994V173.764C472.994 167.708 470.589 161.9 466.306 157.618C462.024 153.336 456.216 150.93 450.161 150.93C444.105 150.93 438.297 153.336 434.015 157.618C429.733 161.9 427.327 167.708 427.327 173.764V183.349H418.465V173.764C418.465 165.357 421.804 157.296 427.748 151.352C433.693 145.408 441.754 142.068 450.161 142.068C458.567 142.068 466.629 145.408 472.573 151.352C478.517 157.296 481.856 165.357 481.856 173.764V183.349Z" fill="black"/>
</g>
<path d="M450.412 183.659H373.861C370.313 183.659 367.437 186.536 367.437 190.084V247.449C367.437 250.997 370.313 253.874 373.861 253.874H450.412C453.96 253.874 456.837 250.997 456.837 247.449V190.084C456.837 186.536 453.96 183.659 450.412 183.659Z" fill="#2D415A"/>
<path opacity="0.2" d="M434.239 183.659H373.861C370.313 183.659 367.437 186.536 367.437 190.084V247.449C367.437 250.997 370.313 253.874 373.861 253.874H434.239C437.787 253.874 440.664 250.997 440.664 247.449V190.084C440.664 186.536 437.787 183.659 434.239 183.659Z" fill="white"/>
<path d="M408.54 210.008C408.54 205.164 405.586 201.235 401.953 201.235C398.319 201.235 395.38 205.164 395.38 210.008C395.293 211.605 395.627 213.196 396.351 214.622C397.074 216.049 398.161 217.259 399.501 218.131L398.275 236.445H405.66L404.449 218.131C405.781 217.253 406.86 216.041 407.578 214.616C408.296 213.19 408.628 211.602 408.54 210.008Z" fill="#2D415A"/>
<path d="M444.932 180.395H436.07V170.81C436.07 164.754 433.665 158.946 429.383 154.664C425.1 150.382 419.293 147.976 413.237 147.976C407.181 147.976 401.373 150.382 397.091 154.664C392.809 158.946 390.403 164.754 390.403 170.81V180.395H381.541V170.81C381.541 162.403 384.881 154.342 390.825 148.398C396.769 142.454 404.831 139.114 413.237 139.114C421.643 139.114 429.705 142.454 435.649 148.398C441.593 154.342 444.932 162.403 444.932 170.81V180.395Z" fill="#2D415A"/>
<g opacity="0.4">
<path d="M444.932 180.395H436.07V170.81C436.07 164.754 433.665 158.946 429.383 154.664C425.1 150.382 419.293 147.976 413.237 147.976C407.181 147.976 401.373 150.382 397.091 154.664C392.809 158.946 390.403 164.754 390.403 170.81V180.395H381.541V170.81C381.541 162.403 384.881 154.342 390.825 148.398C396.769 142.454 404.831 139.114 413.237 139.114C421.643 139.114 429.705 142.454 435.649 148.398C441.593 154.342 444.932 162.403 444.932 170.81V180.395Z" fill="white"/>
</g>
<path opacity="0.2" d="M444.932 170.81V180.395H438.921V169.717C438.921 165.914 438.172 162.148 436.716 158.635C435.26 155.122 433.127 151.93 430.437 149.242C427.747 146.554 424.554 144.422 421.04 142.968C417.527 141.514 413.761 140.766 409.958 140.768C404.146 140.75 398.472 142.53 393.711 145.864C398.386 142.198 403.998 139.921 409.906 139.293C415.814 138.666 421.779 139.713 427.12 142.315C432.461 144.916 436.962 148.968 440.109 154.007C443.256 159.046 444.923 164.869 444.917 170.81H444.932Z" fill="white"/>
<path d="M319.701 340.63H283.9V339.256H291.979C292.522 339.251 293.046 339.056 293.462 338.706C293.877 338.355 294.157 337.871 294.253 337.336L297.872 315.802L298.581 311.563H310.839L321.813 337.44C321.962 337.788 322.023 338.169 321.989 338.547C321.954 338.924 321.827 339.288 321.617 339.604C321.408 339.921 321.123 340.18 320.789 340.359C320.454 340.538 320.08 340.631 319.701 340.63Z" fill="#9F865D"/>
<path opacity="0.4" d="M319.701 340.63H283.9V339.256H291.979C292.522 339.251 293.046 339.056 293.462 338.706C293.877 338.355 294.157 337.871 294.253 337.336L297.872 315.802L298.581 311.563H310.839L321.813 337.44C321.962 337.788 322.023 338.169 321.989 338.547C321.954 338.924 321.827 339.288 321.617 339.604C321.408 339.921 321.123 340.18 320.789 340.359C320.454 340.538 320.08 340.631 319.701 340.63Z" fill="white"/>
<path opacity="0.2" d="M319.746 339.256H291.979C292.522 339.251 293.047 339.056 293.462 338.706C293.877 338.355 294.157 337.871 294.254 337.336L297.872 315.802H310.722L320.499 338.119C320.553 338.243 320.576 338.379 320.564 338.514C320.552 338.649 320.507 338.779 320.432 338.893C320.357 339.006 320.255 339.098 320.135 339.162C320.015 339.225 319.881 339.258 319.746 339.256Z" fill="black"/>
<path d="M338.946 319.495H267.329C267.166 319.502 267.003 319.471 266.855 319.404C266.706 319.338 266.575 319.237 266.471 319.111C266.368 318.985 266.296 318.836 266.26 318.677C266.224 318.518 266.226 318.353 266.265 318.195L276.456 264.375C276.531 264.029 276.714 263.715 276.98 263.481C277.246 263.247 277.58 263.105 277.933 263.075H349.536C349.698 263.067 349.86 263.098 350.009 263.164C350.157 263.231 350.288 263.332 350.39 263.458C350.492 263.585 350.563 263.734 350.597 263.893C350.631 264.053 350.626 264.217 350.584 264.375L340.423 318.18C340.351 318.529 340.169 318.845 339.903 319.082C339.636 319.319 339.301 319.464 338.946 319.495Z" fill="#9F865D"/>
<path opacity="0.4" d="M338.946 319.495H267.329C267.166 319.502 267.003 319.471 266.855 319.404C266.706 319.338 266.575 319.237 266.471 319.111C266.368 318.985 266.296 318.836 266.26 318.677C266.224 318.518 266.226 318.353 266.265 318.195L276.456 264.375C276.531 264.029 276.714 263.715 276.98 263.481C277.246 263.247 277.58 263.105 277.933 263.075H349.536C349.698 263.067 349.86 263.098 350.009 263.164C350.157 263.231 350.288 263.332 350.39 263.458C350.492 263.585 350.563 263.734 350.597 263.893C350.631 264.053 350.626 264.217 350.584 264.375L340.423 318.18C340.351 318.529 340.169 318.845 339.903 319.082C339.636 319.319 339.301 319.464 338.946 319.495Z" fill="white"/>
<path d="M337.469 319.495H265.851C265.689 319.502 265.526 319.471 265.378 319.404C265.229 319.338 265.098 319.237 264.994 319.111C264.891 318.985 264.819 318.836 264.783 318.677C264.747 318.518 264.749 318.353 264.788 318.195L274.979 264.375C275.054 264.029 275.237 263.715 275.503 263.481C275.769 263.247 276.103 263.105 276.456 263.075H348.059C348.221 263.067 348.383 263.098 348.532 263.164C348.68 263.231 348.811 263.332 348.913 263.458C349.015 263.585 349.086 263.734 349.12 263.893C349.154 264.053 349.149 264.217 349.107 264.375L338.946 318.18C338.874 318.529 338.692 318.845 338.425 319.082C338.159 319.319 337.824 319.464 337.469 319.495Z" fill="#2D415A"/>
<path d="M336.524 316.186H268.052L277.475 266.398H345.932L336.524 316.186Z" fill="#9F865D"/>
<path d="M217.186 340.63V338.946L244.746 333.378H298.669C299.629 333.378 300.549 333.759 301.228 334.438C301.907 335.116 302.288 336.037 302.288 336.997C302.288 337.958 301.907 338.88 301.229 339.56C300.551 340.241 299.63 340.626 298.669 340.63H217.186Z" fill="#9F865D"/>
<path opacity="0.4" d="M302.288 337.011C302.29 337.968 301.913 338.887 301.239 339.566C300.556 340.245 299.632 340.627 298.669 340.63H217.186V338.961L244.761 333.378H298.669C299.146 333.378 299.618 333.472 300.058 333.655C300.497 333.838 300.897 334.106 301.233 334.443C301.569 334.781 301.836 335.181 302.017 335.622C302.198 336.063 302.29 336.535 302.288 337.011Z" fill="white"/>
<path opacity="0.4" d="M302.288 337.011C302.29 337.968 301.913 338.887 301.239 339.566C300.556 340.245 299.632 340.627 298.669 340.63H265.925V338.961L293.5 333.378H298.669C299.146 333.378 299.618 333.472 300.058 333.655C300.498 333.838 300.897 334.106 301.233 334.443C301.569 334.781 301.836 335.181 302.017 335.622C302.198 336.063 302.29 336.535 302.288 337.011Z" fill="white"/>
<path d="M321.99 533.801H329.375L342.624 349.27H332.831L321.99 533.801Z" fill="#2D415A"/>
<path opacity="0.1" d="M321.99 533.801H329.375L341.974 358.427L342.624 349.565H332.831L332.314 358.427L321.99 533.801Z" fill="white"/>
<path opacity="0.2" d="M332.314 357.984H341.974L342.624 349.565H332.831L332.314 357.984Z" fill="black"/>
<path d="M267.86 533.801H275.23L276.441 349.27H266.649L267.86 533.801Z" fill="#2D415A"/>
<path opacity="0.1" d="M266.649 349.565L266.841 379.341L267.846 533.801H275.23L276.235 379.341L276.427 349.565H266.649Z" fill="white"/>
<path opacity="0.2" d="M266.649 349.565L266.841 379.666H276.235L276.427 349.565H266.649Z" fill="black"/>
<path d="M189.537 533.801H196.907L210.17 349.27H200.378L189.537 533.801Z" fill="#2D415A"/>
<path opacity="0.1" d="M189.522 533.801H196.907L209.52 358.427L210.17 349.565H200.378L199.846 358.427L189.522 533.801Z" fill="white"/>
<path opacity="0.2" d="M199.846 357.984H209.52L210.17 349.565H200.378L199.846 357.984Z" fill="black"/>
<path d="M406.384 533.801H413.754L402.913 349.27H393.135L406.384 533.801Z" fill="#2D415A"/>
<path opacity="0.1" d="M393.135 349.565L393.785 358.427L406.384 533.801H413.754L403.445 358.427L402.913 349.565H393.135Z" fill="white"/>
<path opacity="0.2" d="M402.913 349.565H393.135L393.785 357.984H403.445L402.913 349.565Z" fill="black"/>
<path d="M407.477 353.878H195.814C195.395 353.878 194.981 353.796 194.593 353.635C194.206 353.475 193.855 353.24 193.558 352.944C193.262 352.647 193.027 352.296 192.867 351.909C192.707 351.522 192.624 351.107 192.624 350.688V344.632H410.667V350.688C410.667 351.107 410.584 351.522 410.424 351.909C410.264 352.296 410.029 352.647 409.732 352.944C409.436 353.24 409.084 353.475 408.697 353.635C408.31 353.796 407.895 353.878 407.477 353.878Z" fill="#9F865D"/>
<path opacity="0.4" d="M407.477 353.878H195.814C195.395 353.878 194.981 353.796 194.593 353.635C194.206 353.475 193.855 353.24 193.558 352.944C193.262 352.647 193.027 352.296 192.867 351.909C192.707 351.522 192.624 351.107 192.624 350.688V344.632H410.667V350.688C410.667 351.107 410.584 351.522 410.424 351.909C410.264 352.296 410.029 352.647 409.732 352.944C409.436 353.24 409.084 353.475 408.697 353.635C408.31 353.796 407.895 353.878 407.477 353.878Z" fill="white"/>
<path opacity="0.2" d="M192.609 349.255H410.667V344.632H192.609V349.255Z" fill="black"/>
<path d="M188.045 345.843H415.245C415.935 345.843 416.596 345.57 417.083 345.082C417.571 344.595 417.845 343.933 417.845 343.244C417.845 342.555 417.571 341.893 417.083 341.406C416.596 340.918 415.935 340.645 415.245 340.645H188.045C187.356 340.645 186.695 340.918 186.207 341.406C185.72 341.893 185.446 342.555 185.446 343.244C185.446 343.933 185.72 344.595 186.207 345.082C186.695 345.57 187.356 345.843 188.045 345.843Z" fill="#9F865D"/>
<path opacity="0.4" d="M187.547 345.698H414.746C415.436 345.698 416.097 345.424 416.585 344.937C417.072 344.449 417.346 343.788 417.346 343.099C417.346 342.409 417.072 341.748 416.585 341.261C416.097 340.773 415.436 340.499 414.746 340.499H187.547C186.857 340.499 186.196 340.773 185.709 341.261C185.221 341.748 184.947 342.409 184.947 343.099C184.947 343.788 185.221 344.449 185.709 344.937C186.196 345.424 186.857 345.698 187.547 345.698Z" fill="white"/>
<path opacity="0.3" d="M281.271 294.298C280.947 294.295 280.627 294.221 280.335 294.081C280.042 293.941 279.784 293.738 279.578 293.487C279.373 293.237 279.224 292.944 279.144 292.63C279.064 292.315 279.054 291.987 279.115 291.669L280.03 286.957C280.159 286.315 280.506 285.736 281.012 285.319C281.518 284.902 282.152 284.672 282.807 284.668H321.208C321.534 284.667 321.856 284.74 322.15 284.881C322.444 285.021 322.702 285.226 322.906 285.48C323.116 285.728 323.267 286.021 323.346 286.336C323.425 286.65 323.432 286.979 323.364 287.297L322.448 292.009C322.325 292.651 321.982 293.231 321.478 293.649C320.974 294.066 320.341 294.296 319.687 294.298H281.271Z" fill="white"/>
<path d="M319.687 293.559H281.286C281.067 293.563 280.851 293.518 280.652 293.428C280.453 293.337 280.276 293.204 280.135 293.037C279.994 292.871 279.891 292.675 279.835 292.464C279.778 292.253 279.769 292.031 279.809 291.817L280.739 287.09C280.829 286.616 281.082 286.188 281.454 285.88C281.826 285.573 282.295 285.405 282.778 285.407H321.178C321.397 285.403 321.613 285.448 321.812 285.538C322.011 285.628 322.188 285.762 322.329 285.928C322.471 286.095 322.573 286.291 322.629 286.502C322.686 286.713 322.695 286.934 322.655 287.149L321.74 291.876C321.647 292.351 321.391 292.78 321.016 293.087C320.641 293.394 320.171 293.561 319.687 293.559Z" fill="white"/>
<path d="M287.78 290.581C288.533 289.505 288.45 288.148 287.594 287.549C286.738 286.951 285.435 287.338 284.682 288.414C283.929 289.491 284.013 290.848 284.868 291.447C285.724 292.045 287.028 291.658 287.78 290.581Z" fill="#2D415A"/>
<path d="M294.253 289.483C294.148 290.073 293.85 290.612 293.407 291.015C292.963 291.418 292.399 291.664 291.802 291.713C291.537 291.705 291.278 291.636 291.044 291.51C290.811 291.385 290.61 291.207 290.456 290.991C290.303 290.775 290.202 290.526 290.162 290.265C290.121 290.003 290.141 289.735 290.221 289.483C290.329 288.894 290.627 288.357 291.07 287.954C291.513 287.551 292.076 287.304 292.673 287.253C292.939 287.258 293.2 287.325 293.435 287.45C293.67 287.574 293.872 287.752 294.026 287.969C294.18 288.186 294.28 288.436 294.32 288.699C294.359 288.962 294.337 289.23 294.253 289.483Z" fill="#2D415A"/>
<path d="M300.265 289.483C300.157 290.072 299.858 290.609 299.415 291.012C298.972 291.415 298.409 291.661 297.813 291.713C297.547 291.707 297.286 291.639 297.051 291.515C296.815 291.391 296.612 291.213 296.457 290.997C296.303 290.781 296.2 290.531 296.159 290.268C296.117 290.005 296.137 289.737 296.218 289.483C296.329 288.893 296.63 288.355 297.075 287.952C297.521 287.549 298.086 287.304 298.684 287.253C298.949 287.261 299.208 287.33 299.442 287.456C299.675 287.581 299.876 287.758 300.029 287.975C300.182 288.191 300.283 288.439 300.324 288.701C300.365 288.963 300.345 289.23 300.265 289.483Z" fill="#2D415A"/>
<path d="M305.803 290.571C306.555 289.494 306.472 288.137 305.616 287.539C304.761 286.94 303.457 287.327 302.704 288.404C301.952 289.48 302.035 290.837 302.891 291.436C303.746 292.034 305.05 291.647 305.803 290.571Z" fill="#2D415A"/>
<path d="M312.272 289.483C312.161 290.073 311.86 290.611 311.415 291.014C310.969 291.416 310.404 291.662 309.806 291.713C309.541 291.705 309.282 291.636 309.048 291.51C308.815 291.385 308.614 291.207 308.461 290.991C308.308 290.775 308.207 290.526 308.166 290.265C308.125 290.003 308.145 289.735 308.225 289.483C308.335 288.895 308.635 288.359 309.077 287.956C309.52 287.554 310.081 287.307 310.677 287.253C310.943 287.259 311.204 287.326 311.439 287.451C311.675 287.575 311.878 287.752 312.032 287.969C312.187 288.185 312.289 288.435 312.331 288.698C312.373 288.96 312.353 289.229 312.272 289.483Z" fill="#2D415A"/>
<path d="M317.802 290.594C318.554 289.518 318.471 288.161 317.615 287.562C316.76 286.964 315.456 287.351 314.703 288.427C313.951 289.503 314.034 290.861 314.89 291.459C315.745 292.058 317.049 291.67 317.802 290.594Z" fill="#2D415A"/>
<path opacity="0.3" d="M325.048 294.298C324.8 294.301 324.554 294.248 324.329 294.143C324.104 294.038 323.905 293.884 323.748 293.692C323.58 293.49 323.462 293.251 323.403 292.994C323.344 292.738 323.346 292.471 323.408 292.215L324.575 286.307C324.678 285.823 324.941 285.388 325.321 285.072C325.702 284.756 326.178 284.577 326.672 284.565H332.58C332.828 284.562 333.074 284.614 333.299 284.719C333.524 284.824 333.723 284.978 333.88 285.17C334.048 285.373 334.166 285.612 334.225 285.868C334.284 286.125 334.282 286.392 334.22 286.647L333.053 292.555C332.95 293.039 332.687 293.474 332.307 293.79C331.926 294.107 331.45 294.285 330.956 294.298H325.048Z" fill="white"/>
<path d="M325.048 293.559H330.956C331.273 293.543 331.576 293.425 331.821 293.223C332.066 293.021 332.239 292.745 332.314 292.437L333.481 286.529C333.518 286.391 333.522 286.246 333.493 286.106C333.464 285.966 333.403 285.834 333.314 285.722C333.225 285.61 333.11 285.521 332.981 285.461C332.851 285.401 332.709 285.372 332.566 285.377H326.658C326.334 285.392 326.024 285.513 325.776 285.721C325.528 285.929 325.355 286.213 325.284 286.529L324.117 292.437C324.085 292.574 324.086 292.717 324.118 292.855C324.15 292.992 324.214 293.12 324.304 293.229C324.394 293.337 324.508 293.424 324.637 293.481C324.766 293.539 324.907 293.565 325.048 293.559Z" fill="#2D415A"/>
<path d="M328.046 292.068C328.001 292.069 327.957 292.061 327.916 292.043C327.875 292.025 327.839 291.998 327.81 291.964C327.757 291.879 327.738 291.777 327.757 291.678C327.777 291.58 327.832 291.492 327.913 291.433L330.262 289.483L328.696 287.533C328.639 287.449 328.619 287.346 328.638 287.246C328.657 287.147 328.715 287.059 328.799 287.002C328.87 286.937 328.962 286.902 329.058 286.902C329.153 286.902 329.246 286.937 329.316 287.002L331.089 289.217C331.145 289.301 331.166 289.405 331.147 289.504C331.127 289.604 331.069 289.692 330.985 289.749L328.341 291.964C328.258 292.032 328.154 292.069 328.046 292.068Z" fill="#9F865D"/>
<path d="M330.704 289.852H326.717C326.671 289.854 326.625 289.844 326.584 289.825C326.542 289.806 326.505 289.777 326.477 289.741C326.448 289.706 326.428 289.664 326.418 289.619C326.409 289.574 326.41 289.527 326.421 289.483C326.444 289.381 326.5 289.29 326.58 289.223C326.66 289.156 326.76 289.118 326.864 289.114H330.837C330.883 289.112 330.929 289.121 330.971 289.141C331.012 289.16 331.049 289.189 331.077 289.224C331.106 289.26 331.126 289.302 331.136 289.347C331.145 289.392 331.144 289.439 331.133 289.483C331.111 289.582 331.057 289.672 330.98 289.739C330.903 289.805 330.806 289.845 330.704 289.852Z" fill="#9F865D"/>
<path d="M201.265 199.684H233.108C236.468 199.684 239.193 196.96 239.193 193.599V161.756C239.193 158.395 236.468 155.671 233.108 155.671H201.265C197.904 155.671 195.18 158.395 195.18 161.756V193.599C195.18 196.96 197.904 199.684 201.265 199.684Z" fill="#9F865D"/>
<path d="M213.745 198.03L217.186 212.829L220.627 198.03H213.745Z" fill="#9F865D"/>
<path opacity="0.3" d="M216.802 190.867C213.057 188.634 209.929 185.499 207.706 181.748C205.482 177.997 204.232 173.749 204.071 169.392V168.919L217.171 163.336L230.257 168.919V169.392C230.105 173.75 228.861 178 226.639 181.752C224.418 185.504 221.289 188.638 217.541 190.867L217.157 191.103L216.802 190.867Z" fill="white"/>
<path opacity="0.6" d="M217.186 164.149L229.548 169.407C229.413 173.641 228.209 177.773 226.047 181.416C223.886 185.06 220.837 188.098 217.186 190.246V164.149Z" fill="white"/>
<path opacity="0.4" d="M217.186 164.149L204.809 169.407C204.946 173.643 206.152 177.775 208.316 181.419C210.48 185.063 213.532 188.1 217.186 190.246V164.149Z" fill="white"/>
<path d="M205.296 331L215.635 332.551C217.982 331.805 220.396 331.285 222.843 331C225.497 330.782 228.164 330.782 230.818 331C230.818 331 235.5 332.758 235.5 337.233C235.5 337.233 224.585 340.187 220.406 338.4L205.296 337.233V331Z" fill="#E4897B"/>
<path opacity="0.2" d="M205.296 331L215.635 332.551C217.982 331.805 220.396 331.285 222.843 331C225.497 330.782 228.164 330.782 230.818 331C230.818 331 235.5 332.758 235.5 337.233C235.5 337.233 224.585 340.187 220.406 338.4L205.296 337.233V331Z" fill="black"/>
<path d="M230.907 261.184C231.068 263.309 231.484 265.407 232.147 267.432C231.605 267.765 230.982 267.941 230.346 267.941C229.709 267.941 229.086 267.765 228.544 267.432L230.907 261.184Z" fill="#AA473D"/>
<path d="M234.939 258.231C234.54 259.191 233.831 259.811 233.344 259.604C232.856 259.397 232.812 258.482 233.196 257.522C233.58 256.562 234.304 255.956 234.791 256.148C235.279 256.34 235.323 257.285 234.939 258.231Z" fill="#2D415A"/>
<path d="M237.361 254.922C237.274 254.949 237.182 254.949 237.095 254.922C236.31 254.461 235.432 254.181 234.524 254.105C233.617 254.028 232.703 254.156 231.852 254.479C231.725 254.544 231.577 254.555 231.441 254.511C231.306 254.467 231.193 254.37 231.128 254.243C231.064 254.116 231.052 253.968 231.097 253.832C231.141 253.696 231.237 253.584 231.365 253.519C232.377 253.107 233.471 252.936 234.561 253.021C235.65 253.105 236.705 253.443 237.642 254.007C237.702 254.043 237.755 254.091 237.797 254.148C237.839 254.205 237.869 254.27 237.885 254.339C237.902 254.407 237.905 254.479 237.893 254.548C237.882 254.618 237.857 254.685 237.819 254.745C237.764 254.811 237.693 254.862 237.613 254.893C237.533 254.924 237.446 254.934 237.361 254.922Z" fill="#2D415A"/>
<path d="M228.027 269.219C227.687 269.633 227.347 270.031 226.978 270.401C224.91 272.55 222.236 274.018 219.313 274.61C218.572 274.76 217.822 274.859 217.068 274.905C215.081 275.03 213.092 274.709 211.245 273.969C209.398 273.228 207.739 272.085 206.389 270.622C205.171 269.299 204.236 267.741 203.642 266.044C200.998 258.954 203.642 253.371 207.468 243.55C208.318 241.247 209.742 239.2 211.605 237.602C213.469 236.004 215.709 234.909 218.114 234.419C220.519 233.93 223.01 234.062 225.349 234.805C227.689 235.547 229.8 236.874 231.483 238.661C239.133 246.725 233.994 261.539 228.027 269.219Z" fill="#E4897B"/>
<path opacity="0.2" d="M219.313 274.61C218.572 274.76 217.822 274.859 217.068 274.905C215.081 275.03 213.092 274.709 211.245 273.969C209.398 273.228 207.739 272.085 206.389 270.622C207.338 269.668 208.405 268.839 209.565 268.156C213.367 269.325 216.752 271.566 219.313 274.61Z" fill="black"/>
<path d="M187.47 274.979C188.445 281.891 203.569 284.476 203.569 284.476C203.569 284.476 210.953 287.873 211.337 284.919C208.25 281.345 207.911 278.229 208.974 275.496C209.68 273.829 210.715 272.322 212.017 271.065C212.711 270.344 213.446 269.664 214.217 269.027L209.594 250.093C206.271 257.33 194.958 273.945 187.47 274.979Z" fill="#E4897B"/>
<path d="M230.626 233.359C230.626 233.359 233.861 232.96 236.342 238.986C238.425 244.052 233.506 245.16 233.728 250.55C233.949 255.941 229.002 258.94 229.002 258.94C229.002 258.94 224.866 262.514 221.336 260.579C221.336 260.579 216.728 262.839 215.517 266.782C214.306 270.726 207.172 263.607 200.748 264.685C200.748 264.685 196.405 260.623 196.73 250.757C196.976 246.473 198.028 242.274 199.832 238.38C200.684 236.319 201.937 234.447 203.519 232.875C205.102 231.303 206.981 230.062 209.048 229.223C216.389 225.885 229.253 228.367 230.626 233.359Z" fill="#2D415A"/>
<path d="M220.45 257.61C220.227 258.593 220.225 259.613 220.445 260.596C220.664 261.58 221.1 262.502 221.72 263.297C223.286 265.01 225.811 262.839 226.831 259.84C227.717 257.167 228.027 252.987 225.723 252.456C223.419 251.924 220.937 254.73 220.45 257.61Z" fill="#E4897B"/>
<path d="M222.075 280.695C219.958 286.603 218.067 292.265 216.403 297.68C215.34 301.047 214.365 304.341 213.449 307.517C212.701 310.185 212.002 312.774 211.352 315.285C211.042 316.496 210.731 317.693 210.436 318.874C208.811 325.388 207.482 331.325 206.463 336.598C204.742 344.828 203.465 353.146 202.638 361.514L144.741 354.218C146.75 344.263 148.315 335.564 150.501 326.156C151.712 321.016 153.086 315.669 154.932 309.806C156.173 305.597 157.62 301.121 159.363 296.262C165.182 279.573 170.544 274.95 170.544 274.95C192.683 271.405 222.075 280.695 222.075 280.695Z" fill="#2D415A"/>
<path d="M241.349 332.078L251.688 333.629C254.035 332.883 256.449 332.364 258.895 332.078C261.554 331.86 264.227 331.86 266.886 332.078C266.886 332.078 271.553 333.836 271.553 338.311C271.553 338.311 260.653 341.265 256.458 339.478L241.364 338.311L241.349 332.078Z" fill="#E4897B"/>
<path d="M177.353 523.004L188.149 523.196L193.525 498.309L182.743 498.117L177.353 523.004Z" fill="#EBB376"/>
<path opacity="0.2" d="M182.743 498.117L193.525 498.324L190.453 512.547L179.775 511.838L182.743 498.117Z" fill="black"/>
<path d="M212.046 462.065C207.932 477.903 202.675 493.422 196.317 508.5L176.629 507.023C176.629 507.023 184.708 475.461 187.632 446.542C189.449 428.701 189.286 413.931 184.058 412.794C180.779 412.07 173.084 412.085 163.218 412.321V375.545C190.882 381.231 218.412 391.939 220.509 400.535C223.434 412.631 218.323 438.242 212.046 462.065Z" fill="#9F865D"/>
<path d="M174.531 507.91L197.986 509.475L201.442 499.329L175.595 498.132L174.531 507.91Z" fill="#9F865D"/>
<path opacity="0.2" d="M174.531 507.91L197.986 509.475L201.442 499.329L175.595 498.132L174.531 507.91Z" fill="white"/>
<path d="M189.774 522.664H189.995C189.995 522.664 190.246 522.738 190.276 522.768H190.365C191.277 523.057 192.218 523.245 193.171 523.329C193.881 523.461 194.615 523.319 195.224 522.93C195.417 522.762 195.557 522.541 195.628 522.295C195.699 522.049 195.697 521.787 195.623 521.542C195.599 521.382 195.537 521.229 195.442 521.098C195.347 520.967 195.221 520.861 195.076 520.789C194.056 520.626 193.011 520.824 192.122 521.35C192.758 520.68 193.134 519.806 193.186 518.883C193.142 518.665 193.03 518.467 192.865 518.318C192.7 518.169 192.491 518.077 192.27 518.056C191.85 517.994 191.422 518.095 191.074 518.337C189.936 519.312 189.759 522.369 189.759 522.546L189.774 522.664ZM190.941 522.044L190.719 522.162C190.649 520.995 190.966 519.838 191.62 518.869C191.691 518.797 191.777 518.742 191.871 518.706C191.965 518.671 192.066 518.656 192.166 518.662H192.299C192.654 518.662 192.728 518.898 192.742 519.046C192.514 520.227 191.876 521.289 190.941 522.044ZM191.088 522.576C192.388 521.852 194.234 521.099 194.928 521.38C194.997 521.416 195.056 521.468 195.1 521.533C195.144 521.597 195.171 521.671 195.179 521.749C195.223 521.904 195.224 522.068 195.182 522.224C195.141 522.38 195.058 522.522 194.943 522.635C194.411 523.108 192.994 523.078 191.088 522.576Z" fill="#9F865D"/>
<path d="M189.522 521.365L177.426 520.611C177.225 520.591 177.023 520.65 176.865 520.778C176.708 520.905 176.607 521.089 176.584 521.291L175.403 530.817C175.37 531.318 175.536 531.811 175.866 532.19C176.195 532.569 176.66 532.803 177.16 532.841C181.384 533.033 183.408 532.914 188.725 533.21C193.444 533.695 198.192 533.843 202.933 533.653C207.364 533.225 206.877 528.779 204.942 528.572C200.319 528.041 194.219 524.658 191.324 522.088C190.822 521.651 190.187 521.396 189.522 521.365Z" fill="#2D415A"/>
<path opacity="0.2" d="M212.046 462.065C204.662 457.413 196.08 451.933 187.632 446.513C189.449 428.671 189.286 413.901 184.058 412.764C180.779 412.041 173.084 412.055 163.218 412.292V375.545C190.882 381.231 218.412 391.939 220.509 400.535C223.434 412.631 218.323 438.242 212.046 462.065Z" fill="black"/>
<path d="M240.463 523.004L251.259 523.196L256.635 498.309L245.854 498.117L240.463 523.004Z" fill="#EBB376"/>
<path opacity="0.2" d="M245.853 498.117L256.635 498.324L253.563 512.547L242.885 511.838L245.853 498.117Z" fill="black"/>
<path d="M201.264 371.941L203.007 357.999L146.632 348.709C146.632 348.709 128.185 385.249 137.209 403.208C145.495 419.632 233.61 409.84 247.168 412.809C260.727 415.777 239.783 507.053 239.783 507.053L259.486 508.53C259.486 508.53 289.911 426.411 283.664 400.579C280.887 389.281 234.437 374.349 201.264 371.941Z" fill="#9F865D"/>
<path d="M237.642 507.91L261.096 509.475L264.552 499.329L238.705 498.132L237.642 507.91Z" fill="#9F865D"/>
<path opacity="0.2" d="M237.642 507.91L261.096 509.475L264.552 499.329L238.705 498.132L237.642 507.91Z" fill="white"/>
<path d="M252.884 522.664H253.105C253.105 522.664 253.357 522.738 253.386 522.768H253.475C254.387 523.057 255.328 523.245 256.281 523.329C256.991 523.461 257.725 523.319 258.334 522.93C258.527 522.762 258.668 522.541 258.738 522.295C258.809 522.049 258.807 521.787 258.733 521.542C258.709 521.382 258.647 521.229 258.552 521.098C258.457 520.967 258.331 520.861 258.186 520.789C257.166 520.626 256.121 520.824 255.232 521.35C255.868 520.68 256.244 519.806 256.296 518.883C256.252 518.665 256.14 518.467 255.975 518.318C255.81 518.169 255.601 518.077 255.38 518.056C254.96 517.994 254.532 518.095 254.184 518.337C253.046 519.312 252.869 522.369 252.869 522.546L252.884 522.664ZM254.051 522.044L253.829 522.162C253.759 520.995 254.076 519.838 254.73 518.869C254.801 518.797 254.887 518.742 254.981 518.706C255.075 518.671 255.176 518.656 255.277 518.662H255.409C255.764 518.662 255.838 518.898 255.853 519.046C255.627 520.231 254.982 521.295 254.036 522.044H254.051ZM254.198 522.576C255.498 521.852 257.344 521.099 258.038 521.38C258.108 521.416 258.167 521.468 258.21 521.533C258.254 521.597 258.281 521.671 258.29 521.749C258.333 521.904 258.334 522.068 258.293 522.224C258.251 522.38 258.168 522.522 258.053 522.635C257.522 523.108 256.104 523.078 254.198 522.576Z" fill="#9F865D"/>
<path d="M252.633 521.365L240.537 520.611C240.335 520.591 240.134 520.65 239.976 520.778C239.818 520.905 239.717 521.089 239.695 521.291L238.513 530.817C238.481 531.318 238.647 531.811 238.976 532.19C239.305 532.569 239.77 532.803 240.271 532.841C244.495 533.033 246.518 532.914 251.835 533.21C256.555 533.695 261.303 533.843 266.044 533.653C270.548 533.225 270.002 528.779 268.052 528.572C263.43 528.041 257.33 524.658 254.435 522.088C253.933 521.651 253.298 521.396 252.633 521.365Z" fill="#2D415A"/>
<path d="M144.564 355.06L170.677 358.486L171.533 354.631L145.362 350.821L144.564 355.06Z" fill="black"/>
<path d="M173.704 354.661L173.379 358.486L197.528 361.809V358.014L173.704 354.661Z" fill="black"/>
<path d="M199.02 358.235V361.809L202.535 362.267V358.811L199.02 358.235Z" fill="black"/>
<path opacity="0.2" d="M216.403 297.68C215.34 301.047 214.365 304.341 213.449 307.517C212.701 310.185 212.002 312.774 211.352 315.285C209.535 305.39 212.829 293.574 212.829 293.574L216.403 297.68Z" fill="black"/>
<path d="M222.075 280.621C226.786 281.581 228.337 318.195 228.544 322.094C228.751 325.993 251.673 333.57 251.673 333.57V338.902C251.673 338.902 227.096 337.188 221.351 334.84C215.606 332.492 214.158 298.581 214.158 298.581L222.075 280.621Z" fill="#E4897B"/>
<path d="M222.075 280.621C226.402 281.965 228.544 306.113 228.544 306.113L215.163 311.637L211.839 298.212C211.839 298.212 210.894 295.479 212.755 289.719C215.458 281.315 222.075 280.621 222.075 280.621Z" fill="#2D415A"/>
<path d="M122.262 401.022H228.928C232.026 401.022 234.998 402.253 237.189 404.444C239.38 406.635 240.611 409.607 240.611 412.705V418.953H110.58V412.705C110.58 409.607 111.81 406.635 114.001 404.444C116.192 402.253 119.164 401.022 122.262 401.022Z" fill="#9F865D"/>
<path d="M156.956 356.61H228.574C229.437 356.61 230.289 356.805 231.066 357.18C231.844 357.555 232.526 358.101 233.063 358.777C233.6 359.453 233.977 360.242 234.166 361.084C234.356 361.926 234.352 362.8 234.156 363.641L221.351 418.953H218.397L229.297 370.479C229.488 369.641 229.488 368.771 229.296 367.933C229.104 367.096 228.726 366.312 228.189 365.641C227.653 364.969 226.972 364.427 226.197 364.056C225.422 363.684 224.574 363.492 223.714 363.493H158.418L156.956 356.61Z" fill="#2D415A"/>
<path d="M184.073 420.932V467.677C184.073 468.398 183.786 469.089 183.277 469.599C182.767 470.109 182.076 470.395 181.355 470.395H169.85C169.129 470.395 168.438 470.109 167.928 469.599C167.418 469.089 167.132 468.398 167.132 467.677V420.932H184.073Z" fill="#2D415A"/>
<path d="M120.8 528.838C120.8 527.857 120.509 526.897 119.964 526.081C119.418 525.265 118.643 524.629 117.737 524.253C116.83 523.878 115.832 523.779 114.869 523.971C113.907 524.162 113.023 524.635 112.329 525.329C111.634 526.023 111.162 526.907 110.97 527.87C110.779 528.833 110.877 529.83 111.253 530.737C111.628 531.644 112.264 532.419 113.081 532.964C113.897 533.51 114.856 533.801 115.838 533.801C117.154 533.801 118.416 533.278 119.347 532.347C120.277 531.416 120.8 530.154 120.8 528.838Z" fill="#2D415A"/>
<path opacity="0.2" d="M118.319 528.838C118.319 528.347 118.173 527.868 117.901 527.46C117.628 527.052 117.24 526.733 116.787 526.546C116.334 526.358 115.835 526.309 115.353 526.404C114.872 526.5 114.43 526.737 114.083 527.084C113.736 527.431 113.5 527.873 113.404 528.354C113.308 528.835 113.357 529.334 113.545 529.788C113.733 530.241 114.051 530.629 114.459 530.901C114.867 531.174 115.347 531.319 115.837 531.319C116.494 531.315 117.123 531.053 117.588 530.588C118.052 530.124 118.315 529.495 118.319 528.838Z" fill="white"/>
<path d="M240.359 528.838C240.362 527.852 240.072 526.888 239.527 526.067C238.981 525.247 238.204 524.606 237.293 524.228C236.383 523.849 235.381 523.749 234.414 523.941C233.448 524.133 232.559 524.607 231.862 525.304C231.165 526.001 230.691 526.889 230.499 527.856C230.308 528.823 230.408 529.825 230.786 530.735C231.165 531.645 231.805 532.422 232.626 532.968C233.447 533.514 234.411 533.804 235.397 533.801C236.712 533.797 237.972 533.273 238.901 532.343C239.831 531.413 240.355 530.153 240.359 528.838Z" fill="#2D415A"/>
<path opacity="0.2" d="M237.878 528.838C237.878 528.347 237.733 527.868 237.46 527.46C237.187 527.052 236.8 526.733 236.346 526.546C235.893 526.358 235.394 526.309 234.913 526.404C234.431 526.5 233.989 526.737 233.642 527.084C233.295 527.431 233.059 527.873 232.963 528.354C232.867 528.835 232.917 529.334 233.104 529.788C233.292 530.241 233.61 530.629 234.018 530.901C234.426 531.174 234.906 531.319 235.397 531.319C236.054 531.315 236.683 531.053 237.147 530.588C237.612 530.124 237.874 529.495 237.878 528.838Z" fill="white"/>
<path d="M179.716 507.038V453.602H171.504V507.038C139.513 507.865 120.061 519.046 116.177 521.498C115.948 521.633 115.759 521.828 115.632 522.063C115.505 522.297 115.443 522.561 115.453 522.827V527.258C115.451 527.465 115.49 527.67 115.568 527.861C115.646 528.053 115.761 528.227 115.907 528.374C116.052 528.521 116.225 528.638 116.416 528.717C116.607 528.797 116.812 528.838 117.019 528.838C117.295 528.836 117.566 528.761 117.805 528.621C118.043 528.481 118.241 528.281 118.378 528.041L120.283 524.703C136.857 519.417 154.11 516.562 171.504 516.225V525.087C171.504 525.354 171.557 525.618 171.659 525.864C171.762 526.111 171.912 526.335 172.102 526.523C172.291 526.711 172.516 526.859 172.763 526.96C173.01 527.061 173.275 527.112 173.542 527.11H177.692C178.229 527.11 178.743 526.897 179.123 526.517C179.502 526.138 179.716 525.623 179.716 525.087V516.225C197.114 516.561 214.372 519.416 230.951 524.703L232.842 528.041C232.98 528.283 233.18 528.484 233.421 528.624C233.662 528.764 233.936 528.838 234.215 528.838C234.632 528.834 235.03 528.666 235.323 528.37C235.616 528.074 235.781 527.674 235.781 527.258V522.827C235.791 522.561 235.729 522.297 235.602 522.063C235.475 521.828 235.286 521.633 235.057 521.498C231.158 519.046 211.721 507.865 179.716 507.038Z" fill="#2D415A"/>
<path d="M178.313 523.861H172.922V533.801H178.313V523.861Z" fill="#2D415A"/>
<path opacity="0.2" d="M184.073 420.888H167.177V440.309H184.073V420.888Z" fill="black"/>
<path d="M244.214 416.073V421.656C244.214 422.031 244.14 422.403 243.996 422.75C243.852 423.097 243.64 423.412 243.374 423.676C243.108 423.941 242.792 424.151 242.444 424.293C242.097 424.436 241.725 424.508 241.349 424.506H109.9C109.525 424.508 109.154 424.436 108.807 424.293C108.46 424.15 108.145 423.941 107.88 423.675C107.615 423.41 107.405 423.095 107.263 422.749C107.12 422.402 107.048 422.03 107.05 421.656V416.073C107.05 415.317 107.35 414.592 107.884 414.057C108.419 413.522 109.144 413.222 109.9 413.222H241.349C242.106 413.222 242.833 413.522 243.37 414.056C243.907 414.59 244.21 415.315 244.214 416.073Z" fill="#2D415A"/>
<path d="M183.733 418.953H107.035C107.035 418.953 82.7095 378.425 82.7095 311.46V286.869C82.7134 282.014 84.6446 277.36 88.0788 273.928C91.513 270.497 96.169 268.569 101.024 268.569H133.517C138.272 268.567 142.841 270.416 146.257 273.724C149.673 277.032 151.666 281.54 151.816 286.293C152.747 320.853 157.827 395.573 183.733 418.953Z" fill="#2D415A"/>
<path opacity="0.2" d="M166.896 418.953H110.491C109.425 418.958 108.377 418.668 107.465 418.115C106.553 417.563 105.811 416.769 105.322 415.822C99.7683 405.128 82.7095 367.57 82.7095 311.46V286.869C82.7095 282.015 84.6374 277.361 88.0693 273.929C91.5011 270.497 96.1556 268.569 101.009 268.569H129.071C133.826 268.567 138.396 270.416 141.811 273.724C145.227 277.032 147.221 281.54 147.371 286.293C148.212 317.117 152.348 380.05 171.696 409.781C172.281 410.662 172.618 411.684 172.672 412.741C172.727 413.797 172.497 414.848 172.007 415.786C171.516 416.723 170.783 417.511 169.884 418.068C168.985 418.625 167.953 418.931 166.896 418.953Z" fill="white"/>
<path opacity="0.2" d="M244.214 416.073V421.656C244.214 422.412 243.914 423.137 243.379 423.671C242.845 424.206 242.12 424.506 241.364 424.506H182.448C181.943 424.508 181.442 424.41 180.974 424.218C180.506 424.026 180.081 423.743 179.723 423.387C179.365 423.03 179.081 422.606 178.887 422.139C178.693 421.672 178.593 421.171 178.593 420.666V417.077C178.593 416.055 178.999 415.074 179.722 414.351C180.445 413.628 181.426 413.222 182.448 413.222H241.349C242.106 413.222 242.833 413.522 243.37 414.056C243.907 414.59 244.21 415.315 244.214 416.073Z" fill="black"/>
<path d="M107.005 266.398L111.879 260.018C111.879 260.018 132.689 260.963 133.192 268.569C133.694 276.176 107.005 266.398 107.005 266.398Z" fill="#9F865D"/>
<path d="M93.3285 285.495C93.3285 285.495 94.5987 319.317 93.3285 406.605C93.3285 409.559 82.3104 409.441 81.5129 406.605C78.8691 396.665 81.5129 317.294 81.5129 317.294" fill="#9F865D"/>
<path d="M81.7639 407.048L92.974 407.432V413.03L81.7639 412.454V407.048Z" fill="#9F865D"/>
<path opacity="0.2" d="M93.3285 285.495C93.3285 285.495 94.5987 319.317 93.3285 406.605C93.3285 409.559 82.3104 409.441 81.5129 406.605C78.8691 396.665 81.5129 317.294 81.5129 317.294" fill="white"/>
<path d="M76.2255 388.764C75.62 372.665 73.4193 298.67 82.665 274.152C82.665 274.152 91.3643 263.105 120.8 263.105C150.236 263.105 159.097 284.003 159.097 284.003C159.097 284.003 160.368 317.811 159.097 405.114C159.097 408.068 148.079 407.964 147.282 405.114C144.638 395.189 147.282 315.802 147.282 315.802L141.374 388.025C141.352 388.267 141.282 388.503 141.166 388.717C141.05 388.93 140.892 389.119 140.702 389.269C140.511 389.42 140.291 389.53 140.056 389.593C139.822 389.656 139.576 389.67 139.336 389.635C130.046 388.158 89.1193 382.413 78.2933 389.798C78.0971 389.924 77.8715 389.997 77.6386 390.009C77.4058 390.022 77.1736 389.974 76.965 389.869C76.7564 389.765 76.5785 389.608 76.4489 389.414C76.3192 389.221 76.2423 388.996 76.2255 388.764Z" fill="#9F865D"/>
<path d="M147.533 405.557L158.743 405.941V411.538L147.533 410.962V405.557Z" fill="#9F865D"/>
<path d="M139.941 389.709L139.055 395.617C139.055 395.617 93.373 385.662 78.5739 396.267L77.6877 389.724C77.6877 389.724 89.1194 379.178 139.941 389.709Z" fill="#9F865D"/>
<path opacity="0.4" d="M76.2255 388.764C75.62 372.665 73.4193 298.67 82.665 274.152C82.665 274.152 91.3643 263.105 120.8 263.105C150.236 263.105 159.097 284.003 159.097 284.003C159.097 284.003 160.368 317.811 159.097 405.114C159.097 408.068 148.079 407.964 147.282 405.114C144.638 395.189 147.282 315.802 147.282 315.802L141.374 388.025C141.352 388.267 141.282 388.503 141.166 388.717C141.05 388.93 140.892 389.119 140.702 389.269C140.511 389.42 140.291 389.53 140.056 389.593C139.822 389.656 139.576 389.67 139.336 389.635C130.046 388.158 89.1193 382.413 78.2933 389.798C78.0971 389.924 77.8715 389.997 77.6386 390.009C77.4058 390.022 77.1736 389.974 76.965 389.869C76.7564 389.765 76.5785 389.608 76.4489 389.414C76.3192 389.221 76.2423 388.996 76.2255 388.764Z" fill="white"/>
<path opacity="0.2" d="M147.326 315.802C147.326 315.802 147.976 292.88 159.142 284.003C159.097 284.003 145.185 289.985 147.326 315.802Z" fill="black"/>
<path opacity="0.2" d="M113.829 265.748C113.829 265.748 100.388 273.133 98.2468 373.758C98.2468 373.758 92.3981 272.247 113.829 265.748Z" fill="black"/>
</svg>
